<?xml version="1.0" encoding="UTF-8"?>
<svg version="1.1" xmlns="http://www.w3.org/2000/svg" width="2000" height="335">
<path d="M0 0 C1.17409927 -0.00151062 1.17409927 -0.00151062 2.37191772 -0.00305176 C19.36244493 0.01174589 34.95451083 1.84515247 51.1875 7.25 C52.425 7.65863281 53.6625 8.06726563 54.9375 8.48828125 C77.08763537 16.13591277 95.81773049 28.76674851 113.1875 44.25 C113.96480469 44.94222656 114.74210937 45.63445313 115.54296875 46.34765625 C140.00505 69.47301175 156.03277167 103.01217335 160.1875 136.25 C160.29835938 137.054375 160.40921875 137.85875 160.5234375 138.6875 C165.07140365 178.02126128 154.89423212 218.87859168 130.77734375 250.4609375 C128.95147961 252.76017382 127.10245575 255.02480002 125.1875 257.25 C126.71477347 262.30248959 129.79332008 265.53805589 133.25 269.375 C134.43738504 270.71770113 135.62357826 272.06145714 136.80859375 273.40625 C137.38851074 274.06238281 137.96842773 274.71851563 138.56591797 275.39453125 C141.44852978 278.69291272 144.18840193 282.10459322 146.9453125 285.5078125 C149.49003799 288.6200029 152.0837332 291.68722003 154.6875 294.75 C159.59367718 300.52509532 164.42021018 306.35932902 169.1875 312.25 C169.93128906 313.136875 170.67507813 314.02375 171.44140625 314.9375 C173.1875 317.25 173.1875 317.25 173.1875 319.25 C162.65204079 319.50547753 152.11732438 319.70062109 141.57939243 319.81993389 C136.68535619 319.87721651 131.79344681 319.95482878 126.90063477 320.07983398 C122.17365262 320.19983912 117.44870814 320.26522183 112.72031975 320.29364967 C110.92159891 320.31389152 109.1229831 320.35342485 107.32513618 320.41303062 C93.26728226 320.86033627 93.26728226 320.86033627 88.16574097 316.91030884 C85.86517588 314.12778188 84.02567971 311.35153629 82.1875 308.25 C80.85523253 306.5039049 79.50431469 304.77167398 78.125 303.0625 C77.14437005 301.79279546 76.16459698 300.52242533 75.1875 299.25 C71.88562622 299.83600302 68.93981431 300.63993253 65.84375 301.921875 C25.77373562 318.10203544 -19.07947459 320.70748456 -59.6484375 304.1015625 C-73.61081976 298.05142422 -86.91366854 290.75918183 -98.8125 281.25 C-99.3904834 280.79012695 -99.9684668 280.33025391 -100.56396484 279.85644531 C-132.00556971 254.54205426 -152.53074515 218.92095989 -158.41992188 178.89550781 C-159.16660481 171.96175807 -159.15825747 165.02975321 -159.125 158.0625 C-159.12350952 157.29031128 -159.12201904 156.51812256 -159.1204834 155.72253418 C-159.08081162 144.2929168 -158.52522669 133.39576835 -155.8125 122.25 C-155.42964844 120.43822266 -155.42964844 120.43822266 -155.0390625 118.58984375 C-149.25544084 93.78394349 -136.08012118 71.04629165 -118.85546875 52.50390625 C-117.4369739 50.93895113 -116.07651964 49.32019275 -114.765625 47.6640625 C-92.92874967 20.67368459 -52.49859007 4.47694905 -18.89749146 0.45149231 C-12.63349054 -0.15385694 -6.28966795 0.00558972 0 0 Z M-38.8125 78.25 C-39.64007813 78.69085938 -40.46765625 79.13171875 -41.3203125 79.5859375 C-61.60481765 91.09532757 -76.20669197 109.64578344 -82.59985352 132.09838867 C-84.11436245 137.76283516 -85.56794717 143.38073216 -85.8125 149.25 C-85.8640625 150.384375 -85.915625 151.51875 -85.96875 152.6875 C-86.7393429 178.1393557 -78.66225824 201.33729021 -61.17211914 219.98217773 C-46.25099553 235.2106893 -26.40063156 245.34886202 -4.8125 246.25 C-3.98878906 246.28996094 -3.16507812 246.32992187 -2.31640625 246.37109375 C7.61589832 246.61615787 17.74322979 245.39809007 27.1875 242.25 C25.67638477 237.4180507 22.92812853 234.32472883 19.625 230.625 C18.53024575 229.37457643 17.43650432 228.12326545 16.34375 226.87109375 C15.53550781 225.94852783 15.53550781 225.94852783 14.7109375 225.00732422 C12.63113926 222.60822362 10.62423104 220.15394264 8.625 217.6875 C5.35971697 213.66641909 2.04192156 209.69654838 -1.3125 205.75 C-5.43357792 200.90045949 -9.48241483 195.99839036 -13.5 191.0625 C-16.07396468 187.93200241 -18.68822994 184.83830952 -21.3125 181.75 C-25.39725506 176.9419544 -29.42093103 172.08961176 -33.40234375 167.1953125 C-35.94727492 164.08529936 -38.51453762 160.99500358 -41.08984375 157.91015625 C-41.54677612 157.36234497 -42.0037085 156.81453369 -42.4744873 156.25012207 C-43.58690186 154.91653418 -44.6996642 153.5832364 -45.8125 152.25 C-35.44220962 151.94771313 -25.0729798 151.71727505 -14.69916821 151.57644176 C-9.88094311 151.50881629 -5.06574832 151.41724517 -0.24926758 151.26928711 C4.40648913 151.1271748 9.05934848 151.05013827 13.71710777 151.01659584 C15.48640241 150.99272234 17.25555234 150.94609447 19.02359962 150.87550926 C32.46724087 150.36054961 32.46724087 150.36054961 36.98626328 153.49939346 C40.7154276 156.96935816 43.40941546 161.00823 46.1875 165.25 C47.66627035 167.10049976 49.16271191 168.93723074 50.6875 170.75 C51.409375 171.636875 52.13125 172.52375 52.875 173.4375 C55.90382908 177.12121105 58.9879003 180.75637044 62.08178711 184.38549805 C64.36376027 187.06867956 66.61765011 189.76756641 68.81640625 192.51953125 C69.61949219 193.52371094 70.42257813 194.52789062 71.25 195.5625 C71.96285156 196.46613281 72.67570313 197.36976563 73.41015625 198.30078125 C73.99667969 198.94402344 74.58320313 199.58726562 75.1875 200.25 C75.8475 200.25 76.5075 200.25 77.1875 200.25 C88.46308369 177.60640981 90.90470198 152.09054974 83.12109375 127.94140625 C78.8665658 116.02030318 72.48607364 105.76503123 64.1875 96.25 C63.66929687 95.64800781 63.15109375 95.04601562 62.6171875 94.42578125 C48.40494541 79.10655548 28.04412514 69.85683491 7.31640625 68.9375 C-9.4105767 68.48215365 -23.84055241 70.2742896 -38.8125 78.25 Z " fill="#E50A52" transform="translate(178.8125,12.75)"/>
<path d="M0 0 C19.47 0 38.94 0 59 0 C59.33 53.13 59.66 106.26 60 161 C77.4796875 141.4475 77.4796875 141.4475 95.3125 121.5 C136.67813299 77.7538543 136.67813299 77.7538543 163.89915466 76.4670105 C168.44034062 76.38252212 172.91731062 76.64269696 177.4375 77.0625 C178.17104832 77.13012543 178.90459663 77.19775085 179.66037369 77.26742554 C188.59214024 78.15453256 197.31489035 79.70523723 206 82 C204.71406048 84.8228551 203.37185342 86.8777763 201.18035889 89.06687927 C200.60570389 89.64572876 200.03104889 90.22457825 199.4389801 90.82096863 C198.81039597 91.44393326 198.18181183 92.06689789 197.53417969 92.70874023 C196.87052902 93.37428925 196.20687836 94.03983826 195.52311707 94.72555542 C193.32755945 96.92481792 191.12488171 99.11679501 188.921875 101.30859375 C187.39174548 102.8375308 185.86198583 104.3668381 184.33258057 105.89649963 C181.12438154 109.10313408 177.91284995 112.30638013 174.69873047 115.50708008 C170.58688239 119.60197439 166.48161122 123.70338406 162.37861252 127.80714321 C159.21841763 130.96706554 156.05561791 134.12436968 152.89194489 137.2808094 C151.37794846 138.79163164 149.8645499 140.30305325 148.35176849 141.81509209 C146.23147556 143.93320614 144.10791471 146.04798837 141.98339844 148.16186523 C141.36291122 148.78280563 140.74242401 149.40374603 140.10313416 150.04350281 C136.54801265 153.57274677 132.89605825 156.85004234 129 160 C130.55215154 166.03065249 133.8202858 170.7288025 137.1875 175.875 C138.46449349 177.85355267 139.74050187 179.83274142 141.015625 181.8125 C142.0046582 183.34390625 142.0046582 183.34390625 143.01367188 184.90625 C146.19941388 189.86811365 149.3194049 194.8704471 152.4375 199.875 C153.05906982 200.87128418 153.68063965 201.86756836 154.32104492 202.89404297 C155.58396575 204.91842837 156.84657952 206.94300535 158.10888672 208.96777344 C161.23543424 213.98090541 164.36800161 218.99027243 167.5 224 C168.75002926 225.99998171 170.00002926 227.99998172 171.25 230 C172.178125 231.485 172.178125 231.485 173.125 233 C178.75 242 178.75 242 180.62768555 245.00439453 C181.86861652 246.98981936 183.10966331 248.97517179 184.35083008 250.96044922 C187.61557541 256.18283942 190.87786754 261.40674191 194.13671875 266.6328125 C194.81476563 267.71949219 195.4928125 268.80617188 196.19140625 269.92578125 C197.48772423 272.00344157 198.78333796 274.08154152 200.078125 276.16015625 C200.66464844 277.09988281 201.25117187 278.03960937 201.85546875 279.0078125 C202.39993652 279.88083008 202.9444043 280.75384766 203.50537109 281.65332031 C204.76842707 283.63641311 206.0769502 285.56731165 207.42578125 287.4921875 C209 290 209 290 209 293 C200.62092488 293.51297547 192.24851872 293.902046 183.85756397 294.13986778 C179.95900973 294.25412315 176.07127193 294.40839143 172.17895508 294.65966797 C147.15028562 296.23320723 147.15028562 296.23320723 140.38394165 290.96200562 C136.02351555 285.78359091 133.43987169 279.93555175 131.05007935 273.64941406 C129.69734684 270.23638767 127.9784433 267.45993573 125.94140625 264.41015625 C125.37848877 263.51643311 124.81557129 262.62270996 124.2355957 261.7019043 C123.68347412 260.83090088 123.13135254 259.95989746 122.5625 259.0625 C116.98647842 250.20492762 111.50691389 241.29477398 106.08959961 232.33935547 C101.6854983 225.07685035 97.16942444 217.89062717 92.55395508 210.76049805 C91.8504895 209.66282104 91.8504895 209.66282104 91.1328125 208.54296875 C90.71918457 207.90383545 90.30555664 207.26470215 89.87939453 206.60620117 C89 205 89 205 89 203 C84.08841302 207.10261971 79.49322005 211.45012785 75 216 C70.50439548 220.55221532 65.88547615 224.86407635 61 229 C59.20847624 230.79152376 59.82837604 233.47526432 59.79467773 235.89672852 C59.77473251 237.15796036 59.75478729 238.4191922 59.73423767 239.71864319 C59.71725205 241.10539627 59.70037329 242.49215066 59.68359375 243.87890625 C59.66303074 245.2899589 59.64203445 246.70100529 59.62062073 248.11204529 C59.56533245 251.8323359 59.51595314 255.55268273 59.46777344 259.27307129 C59.40879297 263.73346884 59.342528 268.19376332 59.27747345 272.65407562 C59.17937895 279.43598764 59.09058132 286.2179647 59 293 C39.53 293 20.06 293 0 293 C0 196.31 0 99.62 0 0 Z " fill="#FFFEFE" transform="translate(1767,23)"/>
<path d="M0 0 C19.47 0 38.94 0 59 0 C59.33 52.8 59.66 105.6 60 160 C71.4675 147.13 82.935 134.26 94.75 121 C135.52635427 77.80760298 135.52635427 77.80760298 163.11816406 76.53704834 C167.7309705 76.45351767 172.28229591 76.71109946 176.875 77.125 C177.62136215 77.19176941 178.3677243 77.25853882 179.13670349 77.32733154 C188.23599461 78.2041484 197.13567596 79.7377842 206 82 C201.81453355 87.00456086 197.44365355 91.66886026 192.78540039 96.23291016 C191.34676115 97.65190126 189.90812715 99.07089768 188.46949768 100.48989868 C187.71599092 101.23117634 186.96248417 101.97245399 186.18614388 102.73619461 C182.17669403 106.68457271 178.18257885 110.6484337 174.18554688 114.609375 C169.10818437 119.63871467 164.02638763 124.6633507 158.92944336 129.67285156 C154.79882641 133.73339503 150.68286065 137.80828116 146.57641411 141.89326096 C145.00961236 143.44644576 143.43740107 144.99419287 141.85978889 146.53639603 C139.66217347 148.68597717 137.48371415 150.85332857 135.30883789 153.02587891 C134.32173073 153.97827202 134.32173073 153.97827202 133.31468201 154.9499054 C131.7068806 156.57632844 130.25561067 158.08888044 129 160 C129.04551525 163.8408123 130.55606578 166.28198515 132.6328125 169.45703125 C133.18380615 170.30958496 133.7347998 171.16213867 134.30249023 172.04052734 C134.90391846 172.95527832 135.50534668 173.8700293 136.125 174.8125 C137.41114882 176.80013934 138.69627055 178.78844358 139.98046875 180.77734375 C140.6461084 181.80456543 141.31174805 182.83178711 141.99755859 183.89013672 C145.19388197 188.85414149 148.31644311 193.8634532 151.4375 198.875 C152.69659525 200.89324123 153.95570995 202.91147032 155.21484375 204.9296875 C155.83987793 205.93225586 156.46491211 206.93482422 157.10888672 207.96777344 C159.61215779 211.98153883 162.11937658 215.9928297 164.62695312 220.00390625 C166.50307303 223.00491556 168.37848889 226.00636412 170.25390625 229.0078125 C172.73843187 232.98331222 175.22561199 236.95713295 177.71484375 240.9296875 C185.10816174 252.73456838 192.44944199 264.56940052 199.72241211 276.44873047 C203.4823131 282.60227534 203.4823131 282.60227534 207.45703125 288.6171875 C209 291 209 291 209 293 C200.67344619 293.60751544 192.35634603 294.06656477 184.01300049 294.34711647 C180.13571819 294.48194761 176.27372831 294.66366185 172.40527344 294.96142578 C147.58520404 296.82170835 147.58520404 296.82170835 140.08886719 290.5736084 C135.0205254 284.45842563 131.74805433 277.74064898 128.59681702 270.45890808 C125.91448121 264.64862869 122.44465723 259.38514975 119 254 C117.67470976 251.85513138 116.35265857 249.70825494 115.03515625 247.55859375 C114.37660645 246.48851074 113.71805664 245.41842773 113.03955078 244.31591797 C111.28193783 241.45837678 109.52549304 238.60012538 107.76986694 235.74136353 C106.68995044 233.98300643 105.60967625 232.2248696 104.52929688 230.46679688 C103.18223658 228.27452227 101.83583067 226.08184537 100.49023438 223.88867188 C99.2674175 221.89919865 98.0414662 219.91164771 96.81201172 217.92626953 C95.55115095 215.89006943 94.29814196 213.84899502 93.05126953 211.80419922 C92.42720215 210.79502441 91.80313477 209.78584961 91.16015625 208.74609375 C90.60078369 207.83400146 90.04141113 206.92190918 89.46508789 205.98217773 C88.98160889 205.32805908 88.49812988 204.67394043 88 204 C81.5084112 204 73.90920811 212.06543515 69.27197266 216.27099609 C57.59241243 228.14855589 57.75170049 243.04065458 57.82180786 258.73190308 C57.93992557 270.17733561 58.38206695 281.56476702 59 293 C39.53 293 20.06 293 0 293 C0 196.31 0 99.62 0 0 Z " fill="#FFFEFE" transform="translate(943,23)"/>
<path d="M0 0 C19.47 0 38.94 0 59 0 C59.02578125 9.631875 59.0515625 19.26375 59.078125 29.1875 C59.10331011 35.31251996 59.12949489 41.43750904 59.16015625 47.5625 C59.20857158 57.2708307 59.25306385 66.97905872 59.27099609 76.6875 C59.28407928 83.76047725 59.3112118 90.83324372 59.35461307 97.90610218 C59.37707952 101.64468766 59.39291971 105.38301463 59.39188385 109.12167358 C58.54010099 137.21193034 58.54010099 137.21193034 70 162 C78.83145218 169.70334697 88.68071264 170.83700931 100.06103516 170.19091797 C108.59338137 169.3507902 116.07076083 165.05253147 122 159 C135.05304095 142.14736099 136.08919704 122.62415843 136.20532227 102.05932617 C136.21522186 100.94552078 136.22512146 99.83171539 136.23532104 98.68415833 C136.26655611 95.05378238 136.2915409 91.42339341 136.31640625 87.79296875 C136.33700872 85.25563748 136.35800598 82.71830939 136.37937927 80.1809845 C136.42867053 74.21739075 136.47402186 68.25377554 136.51740164 62.29013664 C136.58070759 53.62648692 136.65212616 44.96290324 136.72252655 36.29930878 C136.82010776 24.19957171 136.90925633 12.09979897 137 0 C156.14 0 175.28 0 195 0 C195 69.63 195 139.26 195 211 C176.52 211 158.04 211 139 211 C138.67 199.78 138.34 188.56 138 177 C134.535 182.445 134.535 182.445 131 188 C119.34139361 203.18248591 103.30988589 212.79151455 84.2265625 215.71875 C68.22553372 217.1135128 51.42674019 216.86913101 37 209 C35.78763672 208.36964844 35.78763672 208.36964844 34.55078125 207.7265625 C17.00177752 197.99801832 8.32944132 180.66042665 2.89453125 162.04296875 C0.27826382 151.19430486 -0.28870411 140.30555376 -0.22705078 129.19189453 C-0.22648482 127.77112842 -0.22680682 126.35036172 -0.22793579 124.92959595 C-0.22850311 121.12057615 -0.216851 117.31168565 -0.20278788 113.50269556 C-0.19017544 109.50423517 -0.18910182 105.50577091 -0.18673706 101.5072937 C-0.18055288 93.95704753 -0.16418409 86.40686017 -0.14403808 78.85663974 C-0.12158303 70.25189218 -0.11066164 61.64714162 -0.10064721 53.04237199 C-0.07981468 35.36154134 -0.04317735 17.68079118 0 0 Z " fill="#FFFEFE" transform="translate(369,105)"/>
<path d="M0 0 C17.43298959 14.80159493 25.74834525 32.659155 30.8984375 54.4609375 C23.58735466 56.05968173 16.27305006 57.64297891 8.95629883 59.21557617 C6.46757358 59.7523855 3.97960765 60.29272775 1.49243164 60.83666992 C-2.0825338 61.61786871 -5.66003651 62.38632535 -9.23828125 63.15234375 C-10.34991135 63.39811661 -11.46154144 63.64388947 -12.6068573 63.89710999 C-13.64755875 64.11741379 -14.68826019 64.33771759 -15.76049805 64.56469727 C-17.12950508 64.86114891 -17.12950508 64.86114891 -18.52616882 65.16358948 C-21.30032441 65.48388602 -23.41017677 65.1517612 -26.1015625 64.4609375 C-26.38128906 63.37296875 -26.66101563 62.285 -26.94921875 61.1640625 C-30.56232691 47.6826142 -35.17424927 35.72443498 -47.1015625 27.4609375 C-57.60732331 21.67686694 -69.75734904 20.75704327 -81.44921875 23.14453125 C-92.23274687 26.79970745 -99.37899656 33.51639516 -104.69921875 43.44140625 C-111.39141367 57.2039791 -113.29985523 70.67500881 -113.34179688 85.83691406 C-113.35141177 87.9281535 -113.38245542 90.01836907 -113.4140625 92.109375 C-113.55625706 110.1553024 -109.8379424 129.16721412 -98.1015625 143.4609375 C-87.94018915 152.80118977 -76.95634787 154.21433029 -63.67578125 153.8046875 C-52.92605815 153.18953882 -44.74824204 148.42278055 -37.421875 140.6875 C-31.37545458 133.26262104 -27.26275242 123.75405417 -25.1015625 114.4609375 C-18.25316656 115.04734572 -11.54584409 115.98630161 -4.7890625 117.23828125 C-3.85352539 117.40969131 -2.91798828 117.58110138 -1.95410156 117.75770569 C0.00251362 118.11781019 1.95872909 118.48009287 3.91455078 118.84448242 C6.9167537 119.40183788 9.92112726 119.94626732 12.92578125 120.49023438 C14.83347818 120.84296751 16.74103569 121.19645573 18.6484375 121.55078125 C19.99675659 121.79307716 19.99675659 121.79307716 21.37231445 122.04026794 C22.20077881 122.19705521 23.02924316 122.35384247 23.8828125 122.51538086 C24.61209961 122.65004257 25.34138672 122.78470428 26.09277344 122.92344666 C27.8984375 123.4609375 27.8984375 123.4609375 29.8984375 125.4609375 C25.85427308 140.85485369 20.81541419 154.46383591 9.8984375 166.4609375 C9.08632813 167.36585938 8.27421875 168.27078125 7.4375 169.203125 C-10.60847952 188.30751974 -36.37997839 197.7665174 -62.39453125 198.68359375 C-95.07423145 199.40018075 -124.11904821 191.39341131 -148.3515625 168.6484375 C-170.88218742 144.88714819 -177.02448085 112.68672152 -176.3828125 81.02734375 C-175.3492396 51.29920325 -165.38023328 23.62779192 -143.6171875 2.69921875 C-105.47886381 -31.23441397 -39.27131309 -32.14649602 0 0 Z " fill="#FFFEFE" transform="translate(881.1015625,122.5390625)"/>
<path d="M0 0 C3.02831204 2.64307843 5.84544253 5.45156345 8.65234375 8.328125 C9.86857422 9.53082031 9.86857422 9.53082031 11.109375 10.7578125 C21.59372527 21.65296354 29.07650733 36.15604725 31.71533203 51.04223633 C31.8918631 52.03226151 32.06839417 53.02228668 32.25027466 54.04231262 C32.44929886 55.17378975 32.44929886 55.17378975 32.65234375 56.328125 C25.48228794 57.90195694 18.31049979 59.46769757 11.13745117 61.02783203 C8.69759154 61.55949858 6.25813412 62.09301445 3.8190918 62.62841797 C0.31272884 63.39777666 -3.19502791 64.16046798 -6.703125 64.921875 C-7.79288132 65.16248657 -8.88263763 65.40309814 -10.00541687 65.65100098 C-11.53643791 65.98134338 -11.53643791 65.98134338 -13.09838867 66.31835938 C-13.99329514 66.51377319 -14.8882016 66.70918701 -15.81022644 66.91052246 C-18.3706262 67.33190532 -20.75786631 67.40337754 -23.34765625 67.328125 C-23.65058594 66.28914063 -23.95351562 65.25015625 -24.265625 64.1796875 C-28.29996004 50.61350271 -32.72161255 37.2233294 -45.4921875 29.40234375 C-56.5376471 23.80615564 -67.50221315 22.63257817 -79.73046875 24.9765625 C-89.43535089 28.21152321 -96.53570407 34.21597108 -101.71484375 42.984375 C-113.58392568 67.29043753 -115.36803034 98.31206267 -107.09765625 124.015625 C-102.94258007 135.65950127 -98.11906883 145.49260268 -86.91015625 151.671875 C-76.21443285 156.59753709 -62.38217091 157.51228772 -51.16015625 153.703125 C-36.67238429 147.2989476 -29.9695675 135.95240555 -24.30859375 121.71484375 C-23.62966074 119.92867888 -22.98362446 118.13003493 -22.34765625 116.328125 C-15.46550986 116.90888785 -8.74659212 117.88018005 -1.96484375 119.17578125 C-1.02456329 119.35193466 -0.08428284 119.52808807 0.88449097 119.70957947 C3.84953377 120.26598214 6.81343858 120.82819721 9.77734375 121.390625 C11.80331263 121.77187138 13.82935371 122.1527343 15.85546875 122.53320312 C20.78860534 123.46041723 25.72073105 124.39284106 30.65234375 125.328125 C32.10743655 129.89176752 30.66626069 133.38960825 29.15234375 137.765625 C28.87608154 138.56895264 28.59981934 139.37228027 28.31518555 140.19995117 C20.23053616 162.95632184 4.61301369 179.73608486 -16.9921875 190.35546875 C-45.47026902 203.63766113 -80.09220328 203.98100757 -109.56640625 193.76953125 C-120.15404706 189.85895242 -129.52308568 184.34831053 -138.34765625 177.328125 C-139.03085938 176.80992187 -139.7140625 176.29171875 -140.41796875 175.7578125 C-161.295687 158.93730265 -170.70605606 131.6919635 -173.75 105.921875 C-176.74659062 72.09734522 -170.63590643 39.15292086 -148.97265625 12.39453125 C-114.58887158 -27.33416867 -40.90288372 -33.8355099 0 0 Z " fill="#FFFEFE" transform="translate(1703.34765625,120.671875)"/>
<path d="M0 0 C6.785625 0.020625 13.57125 0.04125 20.5625 0.0625 C20.5625 14.5825 20.5625 29.1025 20.5625 44.0625 C3.8125 44.3125 3.8125 44.3125 -1.45605469 44.36035156 C-2.84052851 44.3897278 -4.22497264 44.42055478 -5.609375 44.453125 C-6.32303223 44.45425293 -7.03668945 44.45538086 -7.77197266 44.45654297 C-11.01098253 44.54960492 -13.13575012 44.87014948 -15.88867188 46.625 C-17.98428178 49.92300903 -18.04069286 52.8786875 -18.046875 56.671875 C-18.06250488 57.31656738 -18.07813477 57.96125977 -18.09423828 58.62548828 C-18.1466161 61.02078794 -18.16506687 63.41673276 -18.1875 65.8125 C-18.27 71.175 -18.3525 76.5375 -18.4375 82.0625 C-5.5675 82.0625 7.3025 82.0625 20.5625 82.0625 C20.5625 96.2525 20.5625 110.4425 20.5625 125.0625 C7.6925 125.0625 -5.1775 125.0625 -18.4375 125.0625 C-18.4375 180.5025 -18.4375 235.9425 -18.4375 293.0625 C-37.9075 293.0625 -57.3775 293.0625 -77.4375 293.0625 C-77.4375 237.6225 -77.4375 182.1825 -77.4375 125.0625 C-86.6775 125.0625 -95.9175 125.0625 -105.4375 125.0625 C-105.4375 110.8725 -105.4375 96.6825 -105.4375 82.0625 C-96.1975 82.0625 -86.9575 82.0625 -77.4375 82.0625 C-77.47230469 77.79699219 -77.47230469 77.79699219 -77.5078125 73.4453125 C-77.5234529 70.66178838 -77.53557261 67.87826934 -77.54736328 65.09472656 C-77.55736133 63.17445652 -77.57096421 61.25420147 -77.58837891 59.33398438 C-77.61290192 56.55855589 -77.62404531 53.78333035 -77.6328125 51.0078125 C-77.64313507 50.1626004 -77.65345764 49.31738831 -77.66409302 48.44656372 C-77.66645029 35.64924516 -74.46613426 22.18538784 -65.37109375 12.73828125 C-47.87322924 -2.42653466 -21.53002692 -0.09296851 0 0 Z " fill="#FFFEFE" transform="translate(1265.4375,22.9375)"/>
<path d="M0 0 C19.47 0 38.94 0 59 0 C59.02505615 7.29947754 59.0501123 14.59895508 59.07592773 22.11962891 C59.1567809 45.47367464 59.24243707 68.82770022 59.33111694 92.18171743 C59.34488656 95.8091331 59.35861365 99.43654892 59.37231445 103.06396484 C59.37504276 103.78611976 59.37777106 104.50827467 59.38058204 105.25231306 C59.42466016 116.94619727 59.46529276 128.64009103 59.50465261 140.33399196 C59.54511443 152.33250724 59.58927757 164.33100478 59.63687855 176.32949388 C59.66350983 183.06905851 59.68842869 189.80862047 59.70907402 196.54820633 C59.72866708 202.88956045 59.75281895 209.23088074 59.78049088 215.57220459 C59.78984715 217.90143596 59.79752753 220.23067474 59.80341911 222.55991745 C59.81170444 225.73705442 59.82598805 228.91410982 59.84178162 232.09121704 C59.84275972 233.01534948 59.84373783 233.93948192 59.84474558 234.89161837 C59.87344416 239.3733935 60.09187945 243.5888319 61 248 C68.87183663 249.57436733 76.98336597 249.57807189 85 250 C85 264.19 85 278.38 85 293 C74.543125 293.0928125 74.543125 293.0928125 63.875 293.1875 C61.70534668 293.21481201 59.53569336 293.24212402 57.30029297 293.27026367 C40.84877391 293.39204982 23.90972593 292.48970645 11.0625 280.75 C0.86095524 269.50341894 -0.16444027 254.80586707 -0.12025452 240.38877869 C-0.12110894 239.35611722 -0.12196337 238.32345575 -0.12284368 237.25950152 C-0.1244834 233.818735 -0.1190019 230.37801784 -0.11352539 226.93725586 C-0.11324317 224.4630534 -0.11340194 221.98885085 -0.1139679 219.51464844 C-0.1141952 214.19784352 -0.11136914 208.88105381 -0.10573006 203.56425285 C-0.09758236 195.87717458 -0.09499649 188.19010224 -0.09374207 180.50302012 C-0.09155668 168.02943517 -0.08491052 155.55585678 -0.07543945 143.08227539 C-0.06625205 130.96964551 -0.05917772 118.85701743 -0.05493164 106.74438477 C-0.05466892 105.99701339 -0.05440619 105.24964201 -0.05413551 104.47962301 C-0.05283041 100.73005685 -0.05156672 96.98049067 -0.05032361 93.23092449 C-0.03996697 62.15394384 -0.02153728 31.07697541 0 0 Z " fill="#FFFEFE" transform="translate(1320,23)"/>
<path d="M0 0 C19.47 0 38.94 0 59 0 C59 69.63 59 139.26 59 211 C39.53 211 20.06 211 0 211 C0 141.37 0 71.74 0 0 Z " fill="#FFFFFF" transform="translate(611,105)"/>
<path d="M0 0 C19.14 0 38.28 0 58 0 C58 69.63 58 139.26 58 211 C38.86 211 19.72 211 0 211 C0 141.37 0 71.74 0 0 Z " fill="#FFFFFF" transform="translate(1436,105)"/>
<path d="M0 0 C1.17409927 -0.00151062 1.17409927 -0.00151062 2.37191772 -0.00305176 C19.36244493 0.01174589 34.95451083 1.84515247 51.1875 7.25 C52.425 7.65863281 53.6625 8.06726563 54.9375 8.48828125 C77.08763537 16.13591277 95.81773049 28.76674851 113.1875 44.25 C113.96480469 44.94222656 114.74210937 45.63445313 115.54296875 46.34765625 C140.00505 69.47301175 156.03277167 103.01217335 160.1875 136.25 C160.29835938 137.054375 160.40921875 137.85875 160.5234375 138.6875 C165.07140365 178.02126128 154.89423212 218.87859168 130.77734375 250.4609375 C128.95147961 252.76017382 127.10245575 255.02480002 125.1875 257.25 C126.71477347 262.30248959 129.79332008 265.53805589 133.25 269.375 C134.43738504 270.71770113 135.62357826 272.06145714 136.80859375 273.40625 C137.38851074 274.06238281 137.96842773 274.71851563 138.56591797 275.39453125 C141.44852978 278.69291272 144.18840193 282.10459322 146.9453125 285.5078125 C149.49003799 288.6200029 152.0837332 291.68722003 154.6875 294.75 C159.59367718 300.52509532 164.42021018 306.35932902 169.1875 312.25 C169.93128906 313.136875 170.67507813 314.02375 171.44140625 314.9375 C173.1875 317.25 173.1875 317.25 173.1875 319.25 C162.65204079 319.50547753 152.11732438 319.70062109 141.57939243 319.81993389 C136.68535619 319.87721651 131.79344681 319.95482878 126.90063477 320.07983398 C122.17365262 320.19983912 117.44870814 320.26522183 112.72031975 320.29364967 C110.92159891 320.31389152 109.1229831 320.35342485 107.32513618 320.41303062 C93.26728226 320.86033627 93.26728226 320.86033627 88.16574097 316.91030884 C85.86517588 314.12778188 84.02567971 311.35153629 82.1875 308.25 C80.85523253 306.5039049 79.50431469 304.77167398 78.125 303.0625 C77.14437005 301.79279546 76.16459698 300.52242533 75.1875 299.25 C71.88562622 299.83600302 68.93981431 300.63993253 65.84375 301.921875 C25.77373562 318.10203544 -19.07947459 320.70748456 -59.6484375 304.1015625 C-73.61081976 298.05142422 -86.91366854 290.75918183 -98.8125 281.25 C-99.3904834 280.79012695 -99.9684668 280.33025391 -100.56396484 279.85644531 C-132.00556971 254.54205426 -152.53074515 218.92095989 -158.41992188 178.89550781 C-159.16660481 171.96175807 -159.15825747 165.02975321 -159.125 158.0625 C-159.12350952 157.29031128 -159.12201904 156.51812256 -159.1204834 155.72253418 C-159.08081162 144.2929168 -158.52522669 133.39576835 -155.8125 122.25 C-155.42964844 120.43822266 -155.42964844 120.43822266 -155.0390625 118.58984375 C-149.25544084 93.78394349 -136.08012118 71.04629165 -118.85546875 52.50390625 C-117.4369739 50.93895113 -116.07651964 49.32019275 -114.765625 47.6640625 C-92.92874967 20.67368459 -52.49859007 4.47694905 -18.89749146 0.45149231 C-12.63349054 -0.15385694 -6.28966795 0.00558972 0 0 Z M-107.8125 50.25 C-108.61816406 50.9925 -109.42382812 51.735 -110.25390625 52.5 C-127.7575495 69.15448372 -139.23170461 90.5490138 -146.8125 113.25 C-147.15667969 114.27456299 -147.15667969 114.27456299 -147.5078125 115.31982422 C-158.93609775 150.40936143 -154.0516703 190.92259605 -137.9375 223.625 C-131.86124428 235.46904958 -124.53053119 246.17756039 -115.8125 256.25 C-115.131875 257.05308594 -114.45125 257.85617187 -113.75 258.68359375 C-109.44016773 263.67525496 -104.954875 268.12320376 -99.8125 272.25 C-99.0086084 272.89775391 -99.0086084 272.89775391 -98.18847656 273.55859375 C-63.28383735 301.42189687 -22.67712665 312.02703536 21.65356445 307.68579102 C28.69465411 306.85188067 35.44134576 305.43985112 42.1875 303.25 C42.83267578 303.04890625 43.47785156 302.8478125 44.14257812 302.640625 C55.1636225 299.20341805 65.70375488 295.07766465 76.1875 290.25 C77.87740253 292.2271554 79.56441812 294.20666587 81.25 296.1875 C81.94899414 297.00444336 81.94899414 297.00444336 82.66210938 297.83789062 C83.13583984 298.39541016 83.60957031 298.95292969 84.09765625 299.52734375 C84.58012817 300.07994873 85.0626001 300.63255371 85.55969238 301.2019043 C87.1875 303.25 87.1875 303.25 88.49658203 305.5513916 C90.91828162 309.51300722 92.70942702 311.87778373 97.32432556 313.03993225 C101.26499532 313.29193804 105.14864123 313.26370728 109.08984375 313.12890625 C110.53711472 313.11209843 111.98443725 313.0992975 113.43177795 313.09031677 C117.22254384 313.05611853 121.01015483 312.96787378 124.79968262 312.86798096 C128.67396362 312.77554247 132.54875982 312.73473097 136.42382812 312.68945312 C144.01314983 312.5932255 151.59988121 312.43984233 159.1875 312.25 C156.81998878 308.19177604 154.13511022 304.66638571 151.0625 301.125 C150.06956095 299.96678972 149.07738395 298.80792573 148.0859375 297.6484375 C147.59448242 297.07448242 147.10302734 296.50052734 146.59667969 295.90917969 C144.59306927 293.5501124 142.63893537 291.15230852 140.6875 288.75 C136.94749927 284.15514197 133.13392212 279.62872506 129.29760742 275.11450195 C124.8586119 269.8821273 120.51163961 264.57776708 116.1875 259.25 C118.88335182 255.09209582 121.76026463 251.23707123 124.875 247.375 C132.96519206 237.07180929 139.22674646 225.35571945 144.1875 213.25 C144.70570313 211.98542969 144.70570313 211.98542969 145.234375 210.6953125 C151.73100096 193.85405906 154.58234783 176.48351608 154.4375 158.5 C154.43185028 157.43668961 154.43185028 157.43668961 154.42608643 156.35189819 C154.16403418 114.31741405 138.07209792 79.47089605 109.1875 49.25 C92.74192944 33.01617499 72.15152873 21.5544298 50.49365234 14.05029297 C48.56674855 13.3816088 46.65096931 12.68097901 44.73828125 11.97265625 C-8.1847457 -6.36015701 -68.62458946 12.7367865 -107.8125 50.25 Z " fill="#DE4648" transform="translate(178.8125,12.75)"/>
<path d="M0 0 C3.45691669 2.88076391 6.74566132 5.89384486 10 9 C10.90298828 9.79083984 10.90298828 9.79083984 11.82421875 10.59765625 C24.51454366 22.16389644 32.63166653 39.46641194 36 56 C36.16773926 56.73307373 36.33547852 57.46614746 36.50830078 58.22143555 C41.57065962 81.28706248 37.31749979 106.73018335 24.859375 126.84130859 C23.92867057 128.24269057 22.96776921 129.62395315 22 131 C19.04688061 129.68904505 17.17235391 128.3658972 15.08203125 125.91015625 C14.55464355 125.29640137 14.02725586 124.68264648 13.48388672 124.05029297 C12.9323291 123.39432129 12.38077148 122.73834961 11.8125 122.0625 C11.23516113 121.38590332 10.65782227 120.70930664 10.06298828 120.01220703 C6.06082686 115.3060751 2.13085781 110.54248748 -1.7578125 105.7421875 C-4.30253564 102.62999997 -6.89613017 99.56268965 -9.5 96.5 C-13.83653044 91.39864669 -18.09917935 86.24442685 -22.3203125 81.046875 C-23.83746979 79.12984433 -23.83746979 79.12984433 -25 78 C-26.96369153 77.9059933 -28.93079199 77.88256619 -30.89672852 77.88647461 C-32.78857628 77.88658791 -32.78857628 77.88658791 -34.71864319 77.88670349 C-36.10539794 77.8918109 -37.49215229 77.89702691 -38.87890625 77.90234375 C-40.28995209 77.90420799 -41.70099857 77.90563186 -43.11204529 77.90663147 C-46.83240535 77.91045621 -50.5527266 77.9202861 -54.27307129 77.93133545 C-58.06680781 77.94155052 -61.86055058 77.94612929 -65.65429688 77.95117188 C-73.10288231 77.96190842 -80.55143572 77.9789843 -88 78 C-86.56214835 79.76001026 -85.12392579 81.5197175 -83.68554688 83.27929688 C-82.88467651 84.25926636 -82.08380615 85.23923584 -81.25866699 86.24890137 C-78.70368984 89.36091132 -76.11238926 92.43608667 -73.5 95.5 C-69.37782665 100.3485983 -65.33006396 105.25163571 -61.3125 110.1875 C-58.73853608 113.31799666 -56.12430914 116.41172461 -53.5 119.5 C-49.37898366 124.34959381 -45.33008646 129.25160806 -41.3125 134.1875 C-38.73851929 137.31801707 -36.1234354 140.41096267 -33.5 143.5 C-32.57667496 144.59232287 -31.65349681 145.68476992 -30.73046875 146.77734375 C-28.93235286 148.90495396 -27.12072435 151.01995646 -25.30078125 153.12890625 C-24.06908203 154.58103516 -24.06908203 154.58103516 -22.8125 156.0625 C-22.07644531 156.91972656 -21.34039062 157.77695313 -20.58203125 158.66015625 C-19 161 -19 161 -19 165 C-43.57723063 173.5856459 -68.96287219 175.4742449 -93.4375 164.79296875 C-118.85440933 152.00090583 -136.0854237 131.1538226 -145.2578125 104.3203125 C-152.49940453 80.12875464 -148.97213326 53.08881391 -137.40625 30.94921875 C-125.03822406 8.82731781 -105.94531666 -6.87538222 -81.9375 -14.8125 C-54.01743688 -22.26398307 -23.10814114 -17.78547942 0 0 Z M-95 -2 C-95.82757813 -1.55914062 -96.65515625 -1.11828125 -97.5078125 -0.6640625 C-117.79231765 10.84532757 -132.39419197 29.39578344 -138.78735352 51.84838867 C-140.30186245 57.51283516 -141.75544717 63.13073216 -142 69 C-142.0515625 70.134375 -142.103125 71.26875 -142.15625 72.4375 C-142.9268429 97.8893557 -134.84975824 121.08729021 -117.35961914 139.73217773 C-102.43849553 154.9606893 -82.58813156 165.09886202 -61 166 C-60.17628906 166.03996094 -59.35257812 166.07992187 -58.50390625 166.12109375 C-48.57160168 166.36615787 -38.44427021 165.14809007 -29 162 C-30.51111523 157.1680507 -33.25937147 154.07472883 -36.5625 150.375 C-37.65725425 149.12457643 -38.75099568 147.87326545 -39.84375 146.62109375 C-40.65199219 145.69852783 -40.65199219 145.69852783 -41.4765625 144.75732422 C-43.55636074 142.35822362 -45.56326896 139.90394264 -47.5625 137.4375 C-50.82778303 133.41641909 -54.14557844 129.44654838 -57.5 125.5 C-61.62107792 120.65045949 -65.66991483 115.74839036 -69.6875 110.8125 C-72.26146468 107.68200241 -74.87572994 104.58830952 -77.5 101.5 C-81.58475506 96.6919544 -85.60843103 91.83961176 -89.58984375 86.9453125 C-92.13477492 83.83529936 -94.70203762 80.74500358 -97.27734375 77.66015625 C-97.73427612 77.11234497 -98.1912085 76.56453369 -98.6619873 76.00012207 C-99.77440186 74.66653418 -100.8871642 73.3332364 -102 72 C-91.62970962 71.69771313 -81.2604798 71.46727505 -70.88666821 71.32644176 C-66.06844311 71.25881629 -61.25324832 71.16724517 -56.43676758 71.01928711 C-51.78101087 70.8771748 -47.12815152 70.80013827 -42.47039223 70.76659584 C-40.70109759 70.74272234 -38.93194766 70.69609447 -37.16390038 70.62550926 C-23.72025913 70.11054961 -23.72025913 70.11054961 -19.20123672 73.24939346 C-15.4720724 76.71935816 -12.77808454 80.75823 -10 85 C-8.52122965 86.85049976 -7.02478809 88.68723074 -5.5 90.5 C-4.778125 91.386875 -4.05625 92.27375 -3.3125 93.1875 C-0.28367092 96.87121105 2.8004003 100.50637044 5.89428711 104.13549805 C8.17626027 106.81867956 10.43015011 109.51756641 12.62890625 112.26953125 C13.43199219 113.27371094 14.23507813 114.27789062 15.0625 115.3125 C15.77535156 116.21613281 16.48820313 117.11976563 17.22265625 118.05078125 C17.80917969 118.69402344 18.39570313 119.33726562 19 120 C19.66 120 20.32 120 21 120 C32.27558369 97.35640981 34.71720198 71.84054974 26.93359375 47.69140625 C22.6790658 35.77030318 16.29857364 25.51503123 8 16 C7.48179687 15.39800781 6.96359375 14.79601562 6.4296875 14.17578125 C-7.78255459 -1.14344452 -28.14337486 -10.39316509 -48.87109375 -11.3125 C-65.5980767 -11.76784635 -80.02805241 -9.9757104 -95 -2 Z " fill="#DE4647" transform="translate(235,93)"/>
<path d="M0 0 C8.21111373 8.97450526 10.35892839 18.83447866 10.2109375 30.77734375 C9.46215146 42.2171305 5.52518568 50.97308239 -2.8125 58.8125 C-12.54828793 66.83568279 -23.7395047 67.90960832 -36 67 C-44.15734736 65.41560956 -50.94357104 62.75152865 -57 57 C-57.55300781 56.47535156 -58.10601563 55.95070313 -58.67578125 55.41015625 C-66.35521054 47.31150253 -68.34721051 36.82465912 -68.21484375 26 C-67.46359262 15.50980239 -64.09694286 5.63929654 -56.4375 -1.75 C-40.20777913 -14.91750938 -15.27521716 -14.25686935 0 0 Z " fill="#FFFEFE" transform="translate(1494,14)"/>
<path d="M0 0 C1.36125 0.86625 1.36125 0.86625 2.75 1.75 C10.40395951 9.40395951 14.31732314 18.55793271 14.46826172 29.34472656 C14.45811035 30.1797168 14.44795898 31.01470703 14.4375 31.875 C14.42992676 32.75124023 14.42235352 33.62748047 14.41455078 34.53027344 C14.12429136 45.95844373 10.44479156 54.64369528 2.29296875 62.68359375 C-6.43526953 70.05206438 -17.38176142 71.66298576 -28.484375 71.3203125 C-40.09540647 70.26241852 -48.75026696 65.25715269 -56.30859375 56.48046875 C-63.76951401 47.02701785 -63.99903909 35.53962546 -63 24 C-61.32563449 13.9148682 -56.25975695 6.3028925 -48.5234375 -0.23828125 C-34.63658378 -9.93328284 -13.92562156 -8.98960917 0 0 Z " fill="#FFFEFE" transform="translate(665,10)"/>
</svg>
